<?xml version="1.0" encoding="UTF-8"?>
<!DOCTYPE svg PUBLIC "-//W3C//DTD SVG 1.1//EN" "http://www.w3.org/Graphics/SVG/1.1/DTD/svg11.dtd">
<!-- Creator: CorelDRAW X8 -->
<svg xmlns="http://www.w3.org/2000/svg" xml:space="preserve" width="200.915mm" height="61.9121mm" version="1.1" style="shape-rendering:geometricPrecision; text-rendering:geometricPrecision; image-rendering:optimizeQuality; fill-rule:evenodd; clip-rule:evenodd"
viewBox="0 0 19540 6021"
 xmlns:xlink="http://www.w3.org/1999/xlink">
 <defs>
  <style type="text/css">
   <![CDATA[
    .fil1 {fill:#ABCD23}
    .fil0 {fill:#0E9A88}
    .fil2 {fill:#1D1819;fill-rule:nonzero}
   ]]>
  </style>
 </defs>
 <g id="Layer_x0020_1">
  <metadata id="CorelCorpID_0Corel-Layer"/>
  <g id="_2509775931568">
   <polygon class="fil0" points="7446,5579 7446,668 8284,668 8284,2602 9913,2602 9913,668 10751,668 10751,5579 9913,5579 9913,3432 8284,3432 8284,5579 "/>
   <path class="fil0" d="M11554 5579l0 -4911 1759 0c442,0 764,45 964,133 201,88 361,245 481,470 121,226 181,483 181,774 0,369 -90,673 -272,913 -182,240 -454,391 -816,454 181,124 329,262 445,411 118,150 276,416 474,798l504 958 -998 0 -599 -1072c-214,-381 -362,-621 -442,-720 -79,-99 -162,-167 -251,-204 -89,-36 -230,-55 -423,-55l-169 0 0 2051 -838 0zm838 -2832l618 0c401,0 650,-21 750,-61 99,-40 178,-110 234,-208 57,-98 85,-222 85,-369 0,-166 -38,-299 -112,-402 -74,-101 -179,-165 -314,-192 -68,-11 -271,-17 -609,-17l-652 0 0 1249z"/>
   <path class="fil0" d="M514 0c284,0 514,223 514,498 0,276 -230,499 -514,499 -284,0 -514,-223 -514,-499 0,-275 230,-498 514,-498z"/>
   <path class="fil0" d="M1775 0c284,0 514,223 514,498 0,276 -230,499 -514,499 -283,0 -513,-223 -513,-499 0,-275 230,-498 513,-498z"/>
   <path class="fil0" d="M3037 2541c284,0 514,223 514,498 0,276 -230,499 -514,499 -284,0 -514,-223 -514,-499 0,-275 230,-498 514,-498z"/>
   <path class="fil0" d="M514 2512c284,0 514,223 514,499 0,275 -230,498 -514,498 -284,0 -514,-223 -514,-498 0,-276 230,-499 514,-499z"/>
   <path class="fil0" d="M1775 2541c284,0 514,223 514,498 0,276 -230,499 -514,499 -283,0 -513,-223 -513,-499 0,-275 230,-498 513,-498z"/>
   <path class="fil0" d="M3037 5024c284,0 514,224 514,499 0,275 -230,498 -514,498 -284,0 -514,-223 -514,-498 0,-275 230,-499 514,-499z"/>
   <path class="fil0" d="M514 5024c284,0 514,224 514,499 0,275 -230,498 -514,498 -284,0 -514,-223 -514,-498 0,-275 230,-499 514,-499z"/>
   <path class="fil0" d="M1775 5024c284,0 514,224 514,499 0,275 -230,498 -514,498 -283,0 -513,-223 -513,-498 0,-275 230,-499 513,-499z"/>
   <path class="fil0" d="M514 1256c284,0 514,223 514,499 0,275 -230,498 -514,498 -284,0 -514,-223 -514,-498 0,-276 230,-499 514,-499z"/>
   <path class="fil0" d="M514 3768c284,0 514,223 514,499 0,275 -230,498 -514,498 -284,0 -514,-223 -514,-498 0,-276 230,-499 514,-499z"/>
   <path class="fil0" d="M3037 0c284,0 514,223 514,498 0,276 -230,499 -514,499 -284,0 -514,-223 -514,-499 0,-275 230,-498 514,-498z"/>
   <path class="fil1" d="M3037 5190c151,-485 1070,-3637 1749,-3449 622,172 721,1701 997,1232 229,-390 781,-1261 1016,-1497 235,-237 391,-86 381,284 -10,369 -29,625 -78,1156 -49,530 -98,739 59,597 156,-142 498,-417 498,-417 0,0 -420,675 -567,862 -1019,1299 -210,-1654 -445,-1514 -127,76 -1017,1634 -1105,1672 -88,38 -204,72 -516,-610 -367,-800 -260,-874 -396,-732 -270,280 -811,1011 -1593,2416z"/>
   <path class="fil2" d="M16060 2364l105 0 0 745 -105 0 0 -745zm-423 0l104 0 0 745 -104 0 0 -745zm65 328l413 0 0 99 -413 0 0 -99zm903 -115l104 0 0 532 -104 0 0 -532zm-216 323c0,37 10,66 29,86 18,21 45,31 80,31 34,0 60,-9 79,-27 19,-18 28,-44 28,-78l8 112c-11,26 -29,48 -54,66 -24,17 -54,26 -90,26 -59,0 -105,-19 -136,-56 -32,-38 -48,-91 -48,-160l0 -323 104 0 0 323zm1061 -114c0,-37 -10,-66 -30,-87 -19,-20 -46,-31 -82,-31 -32,0 -57,10 -75,30 -18,20 -27,48 -27,84l-21 -102c17,-35 39,-63 67,-82 27,-19 58,-29 91,-29 38,0 71,8 98,25 27,17 48,42 62,74 14,33 21,72 21,118l0 323 -104 0 0 -323zm-636 -209l105 0 0 532 -105 0 0 -532zm318 209c0,-37 -9,-66 -28,-87 -18,-20 -44,-31 -78,-31 -34,0 -61,9 -79,28 -19,18 -28,43 -28,76l-11 -103c16,-32 38,-56 64,-74 27,-17 56,-26 88,-26 37,0 69,8 95,25 27,17 47,42 61,74 13,33 20,72 20,118l0 323 -104 0 0 -323zm827 -15c0,-34 -9,-61 -28,-81 -18,-19 -45,-29 -79,-29 -21,0 -42,4 -62,10 -21,6 -39,16 -54,27l-77 -52c21,-24 47,-43 80,-57 33,-13 70,-20 110,-20 44,0 82,8 113,23 32,16 56,38 72,68 16,30 25,65 25,107l0 342 -100 0 0 -338zm-130 345c-66,0 -115,-13 -147,-40 -33,-27 -49,-69 -49,-124 0,-53 15,-92 45,-118 30,-27 74,-40 135,-40l151 0 7 84 -158 0c-27,0 -48,6 -61,18 -14,12 -20,31 -20,56 0,27 9,47 27,60 17,13 45,19 81,19 40,0 70,-4 90,-13 19,-8 29,-21 29,-39l11 74c-9,15 -21,26 -34,36 -14,9 -29,16 -47,20 -18,5 -38,7 -60,7zm334 -539l105 0 0 532 -105 0 0 -532zm323 209c0,-37 -10,-66 -29,-87 -20,-20 -47,-31 -82,-31 -34,0 -61,9 -79,28 -19,18 -28,43 -28,76l-11 -103c16,-32 38,-56 64,-74 27,-17 56,-26 88,-26 58,0 102,19 134,57 32,38 48,91 48,160l0 323 -105 0 0 -323zm-2804 1168l255 0c19,0 37,-5 52,-15 16,-9 28,-23 36,-40 8,-18 12,-38 12,-61l0 0c0,-23 -4,-43 -12,-61 -8,-17 -20,-31 -35,-41 -16,-9 -33,-14 -53,-14l-255 0 0 -99 251 0c43,0 80,9 113,26 33,18 58,43 76,76 18,32 27,70 27,113l0 0c0,43 -9,80 -27,113 -19,32 -44,58 -76,76 -33,17 -71,26 -113,26l-251 0 0 -99zm-45 -331l104 0 0 745 -104 0 0 -745zm248 407l104 -23 191 361 -124 0 -171 -338zm569 346c-49,0 -92,-9 -126,-28 -35,-18 -62,-45 -80,-81 -18,-36 -27,-79 -27,-129l0 -60c0,-53 8,-98 26,-135 18,-37 43,-66 77,-85 33,-20 73,-29 121,-29 44,0 82,11 113,33 32,22 56,54 72,96 17,42 25,93 25,152l0 34 -358 0 0 -84 259 0 0 0c-3,-43 -15,-77 -34,-101 -19,-24 -45,-36 -77,-36 -40,0 -71,13 -92,39 -22,26 -33,63 -33,110l0 68c0,44 12,78 35,101 23,24 56,36 99,36 21,0 42,-5 63,-13 21,-9 39,-21 56,-36l0 0 68 69 0 0c-26,25 -55,44 -88,58 -33,14 -66,21 -99,21zm479 0c-32,0 -61,-3 -89,-9 -27,-6 -53,-16 -77,-28 -24,-12 -46,-28 -66,-46l0 0 62 -76 0 0c29,22 57,38 86,49 28,11 56,16 84,16 41,0 72,-6 93,-19 20,-13 31,-32 31,-58 0,-17 -6,-30 -17,-38 -12,-9 -26,-14 -42,-17 -17,-3 -41,-6 -71,-8 -3,0 -6,0 -9,0 -3,-1 -6,-1 -8,-1 -2,0 -3,0 -5,0 -1,-1 -2,-1 -4,-1 -34,-2 -63,-7 -87,-15 -24,-7 -44,-21 -60,-41 -16,-20 -24,-49 -24,-87 0,-37 8,-69 23,-93 16,-25 38,-44 69,-57 30,-12 68,-18 114,-18 28,0 54,2 79,7 26,5 49,13 72,23 23,10 45,23 67,38l0 0 -64 77 0 0c-26,-17 -52,-30 -78,-39 -26,-8 -51,-13 -76,-13 -35,0 -62,7 -80,19 -18,12 -26,30 -26,54 0,15 5,25 15,33 10,7 23,11 38,14 15,2 37,4 66,6 2,0 4,1 6,1 2,0 4,0 7,0 1,0 2,0 3,0 1,0 2,0 3,1 37,2 69,7 95,14 26,8 48,23 66,45 18,22 26,54 26,96 0,39 -8,70 -24,95 -16,25 -41,44 -74,57 -33,13 -75,19 -124,19zm505 0c-46,0 -85,-9 -118,-27 -33,-18 -58,-45 -75,-79 -17,-35 -26,-77 -26,-126l0 -86c0,-48 9,-90 26,-124 17,-34 42,-61 75,-78 33,-18 72,-27 118,-27 46,0 86,9 119,27 33,17 58,44 75,78 17,34 26,76 26,124l0 88c0,48 -9,90 -26,124 -17,34 -42,61 -75,79 -33,18 -73,27 -119,27zm0 -99c37,0 65,-12 85,-35 20,-23 30,-55 30,-96l0 -88c0,-42 -10,-73 -30,-96 -20,-23 -48,-34 -85,-34 -36,0 -64,11 -84,34 -20,23 -30,54 -30,96l0 88c0,41 10,73 30,96 20,23 48,35 84,35zm622 -441l104 0 0 532 -104 0 0 -532zm-216 324c0,37 9,66 28,86 19,20 46,31 81,31 34,0 60,-9 79,-28 19,-18 28,-44 28,-77l7 111c-11,27 -28,49 -53,66 -25,18 -55,27 -91,27 -58,0 -104,-19 -136,-57 -32,-37 -48,-91 -48,-159l0 -324 105 0 0 324zm425 -324l104 0 0 532 -104 0 0 -532zm293 126c-10,-11 -21,-19 -35,-25 -14,-6 -31,-9 -49,-9 -33,0 -59,9 -77,27 -18,19 -28,44 -28,77l-10 -103c16,-32 37,-56 63,-74 26,-18 55,-26 86,-26 25,0 47,3 66,10 20,7 37,17 52,31l-68 92zm305 414c-48,0 -90,-9 -124,-27 -35,-18 -61,-45 -79,-79 -18,-35 -27,-76 -27,-125l0 -88c0,-48 9,-89 27,-123 18,-34 44,-61 79,-78 34,-18 76,-27 124,-27 28,0 54,3 78,10 25,6 47,16 66,29 20,12 36,28 49,46l0 0 -76 67 0 0c-15,-17 -32,-30 -52,-39 -21,-9 -42,-14 -63,-14 -41,0 -72,11 -94,34 -22,23 -33,54 -33,95l0 88c0,42 11,74 33,97 21,23 53,35 94,35 22,0 43,-5 63,-15 20,-10 38,-24 52,-42l0 0 76 72 0 0c-14,18 -30,33 -49,46 -20,12 -42,22 -66,28 -25,7 -51,10 -78,10zm472 0c-50,0 -92,-9 -127,-28 -34,-18 -61,-45 -79,-81 -18,-36 -28,-79 -28,-129l0 -60c0,-53 9,-98 27,-135 17,-37 43,-66 76,-85 34,-20 74,-29 121,-29 45,0 83,11 114,33 32,22 55,54 72,96 17,42 25,93 25,152l0 34 -359 0 0 -84 260 0 0 0c-4,-43 -15,-77 -34,-101 -19,-24 -45,-36 -78,-36 -39,0 -70,13 -92,39 -21,26 -32,63 -32,110l0 68c0,44 11,78 35,101 23,24 56,36 99,36 21,0 42,-5 63,-13 20,-9 39,-21 56,-36l0 0 68 69 0 0c-26,25 -56,44 -89,58 -32,14 -65,21 -98,21zm-3478 1260c-36,0 -70,-4 -102,-11 -32,-6 -62,-17 -90,-30 -28,-14 -54,-31 -78,-52l0 0 65 -79 0 0c28,24 59,43 94,55 34,12 71,18 111,18 54,0 95,-10 125,-30 30,-20 45,-48 45,-85l0 0c0,-26 -7,-47 -20,-62 -14,-15 -31,-26 -53,-34 -21,-7 -49,-14 -82,-20 -1,0 -3,0 -4,0 -1,0 -2,-1 -3,-1l-8 -1c-50,-9 -90,-19 -121,-29 -32,-11 -59,-31 -81,-59 -22,-29 -33,-69 -33,-122l0 -1c0,-46 10,-85 31,-118 21,-32 51,-57 90,-74 40,-17 88,-26 144,-26 26,0 52,3 78,9 26,6 51,14 77,26 25,11 49,26 74,43l0 0 -60 83 0 0c-28,-21 -56,-36 -85,-47 -28,-10 -56,-15 -84,-15 -51,0 -91,10 -119,30 -28,20 -42,49 -42,86l0 1c0,25 7,46 21,60 15,15 33,26 55,33 21,7 51,14 90,22 2,0 3,0 4,0 1,1 2,1 4,1 2,1 3,1 5,1 3,0 4,1 6,1 45,9 83,20 113,33 30,13 56,33 76,61 20,28 30,67 30,116l0 1c0,45 -10,84 -32,116 -22,33 -53,57 -93,74 -41,17 -90,26 -148,26zm772 -540l-226 656c-9,25 -19,44 -33,58 -13,14 -30,25 -49,31 -19,6 -43,9 -72,9l-21 0 0 -101 21 0c20,0 35,-3 47,-11 11,-8 21,-22 30,-41l196 -601 107 0zm-471 0l107 0 163 462 -58 114 -212 -576zm697 540c-31,0 -61,-3 -88,-10 -28,-6 -54,-15 -77,-27 -24,-13 -46,-28 -66,-46l0 0 61 -77 0 0c29,22 58,39 86,49 28,11 56,17 84,17 41,0 73,-7 93,-19 21,-13 31,-32 31,-58 0,-17 -5,-30 -17,-38 -11,-9 -25,-15 -42,-18 -17,-3 -40,-5 -70,-8 -3,0 -6,0 -9,0 -3,0 -6,0 -9,-1 -1,0 -3,0 -4,0 -1,0 -3,0 -4,0 -35,-3 -64,-8 -88,-15 -24,-8 -44,-21 -59,-41 -16,-21 -24,-49 -24,-87 0,-38 7,-69 23,-94 15,-25 38,-44 68,-56 31,-12 69,-19 115,-19 27,0 54,3 79,8 25,5 49,13 72,23 23,10 45,23 66,38l0 0 -63 76 0 0c-27,-17 -53,-30 -79,-38 -26,-9 -51,-13 -75,-13 -36,0 -62,6 -80,18 -18,12 -27,31 -27,55 0,14 5,25 15,32 10,7 23,12 38,15 16,2 38,4 66,6 2,0 4,0 6,0 3,0 5,0 7,1 1,0 2,0 3,0 1,0 2,0 3,0 38,3 69,8 96,15 26,8 48,22 65,45 18,22 27,54 27,96 0,38 -8,70 -25,95 -16,25 -41,44 -74,57 -33,12 -74,19 -124,19zm440 -5c-43,0 -74,-12 -94,-36 -20,-24 -30,-59 -30,-105l0 -549 104 0 0 550c0,13 3,23 8,30 5,7 13,10 23,10l50 0 0 100 -61 0zm-179 -535l240 0 0 94 -240 0 0 -94zm547 540c-49,0 -91,-10 -126,-28 -35,-19 -62,-46 -80,-81 -18,-36 -27,-79 -27,-130l0 -60c0,-52 9,-97 26,-134 18,-38 43,-66 77,-85 33,-20 74,-30 121,-30 44,0 82,11 114,34 31,22 55,54 71,96 17,42 25,92 25,151l0 35 -358 0 0 -84 259 0 0 0c-3,-43 -14,-77 -34,-101 -19,-24 -45,-36 -77,-36 -40,0 -71,13 -92,39 -22,25 -33,62 -33,110l0 67c0,44 12,78 35,102 23,23 56,35 99,35 21,0 42,-4 63,-13 21,-8 39,-20 56,-36l0 0 68 69 0 0c-26,25 -55,45 -88,59 -33,14 -66,21 -99,21zm926 -330c0,-38 -10,-67 -29,-88 -20,-20 -47,-30 -82,-30 -33,0 -58,10 -75,29 -18,20 -27,48 -27,85l-21 -103c17,-35 39,-62 66,-82 28,-19 58,-29 91,-29 39,0 71,9 98,26 27,17 48,41 62,74 15,32 22,71 22,117l0 323 -105 0 0 -322zm-635 -210l104 0 0 532 -104 0 0 -532zm317 210c0,-38 -9,-67 -27,-88 -19,-20 -45,-30 -79,-30 -34,0 -60,9 -79,27 -18,18 -28,44 -28,76l-11 -102c17,-32 38,-57 65,-75 26,-17 55,-26 88,-26 37,0 69,9 95,26 26,17 46,41 60,74 14,32 21,71 21,117l0 323 -105 0 0 -322z"/>
  </g>
 </g>
</svg>
