<svg width="158" height="47" viewBox="0 0 158 47" fill="none" xmlns="http://www.w3.org/2000/svg">
<path fill-rule="evenodd" clip-rule="evenodd" d="M112.44 0L119.954 7.52982H122.136L89.9587 39.7759H128.602L121.088 32.2459H118.799L150.977 0H112.44Z" fill="#EC1D24"/>
<path fill-rule="evenodd" clip-rule="evenodd" d="M108.961 19.0429L89.9586 0H111.285L119.624 8.35675L108.961 19.0429ZM136.671 46.8139L121.388 31.4965L132.052 20.8106L157.998 46.8139H136.671Z" fill="#FCFCFC"/>
<path fill-rule="evenodd" clip-rule="evenodd" d="M0.817681 13.5719C0.817681 13.4263 0.862851 13.3078 0.953961 13.2167C1.04469 13.1256 1.16251 13.0801 1.3084 13.0801H12.101C12.2464 13.0801 12.3642 13.1256 12.4555 13.2167C12.546 13.3078 12.5918 13.4263 12.5918 13.5719C12.5918 13.9724 12.4555 14.305 12.1827 14.5683C11.9102 14.8328 11.574 14.9644 11.1742 14.9644H1.3084C1.16251 14.9644 1.04469 14.9197 0.953961 14.8278C0.862851 14.7371 0.817681 14.6188 0.817681 14.4732V13.5719ZM0 26.7088C0 26.3813 0.145314 26.0442 0.436134 25.6981L7.84926 16.7947C7.90384 16.7034 7.98092 16.6354 8.08107 16.5897C8.18063 16.5443 8.26694 16.5215 8.33998 16.5215H10.1387C10.2294 16.5215 10.275 16.5578 10.275 16.631C10.275 16.7034 10.2479 16.7766 10.1931 16.849L3.13424 25.2886H12.2648C12.4097 25.2886 12.5277 25.3344 12.6189 25.4252C12.7096 25.5168 12.7551 25.6347 12.7551 25.7802V26.6816C12.7551 26.8276 12.7096 26.9455 12.6189 27.0366C12.5277 27.1279 12.4097 27.1732 12.2648 27.1732H0.490723C0.345217 27.1732 0.227005 27.1324 0.13628 27.0503C0.0451703 26.9683 0 26.8548 0 26.7088ZM24.0381 19.3892C24.0381 19.2435 24.0833 19.1256 24.1744 19.034C24.2651 18.9434 24.3832 18.8974 24.5289 18.8974H31.3696C31.4964 18.8974 31.6102 18.9434 31.7102 19.034C31.8099 19.1256 31.8603 19.2435 31.8603 19.3892V20.2359C31.8603 20.3815 31.8099 20.5 31.7102 20.5913C31.6102 20.6824 31.4964 20.7277 31.3696 20.7277H24.5289C24.3832 20.7277 24.2651 20.6824 24.1744 20.5913C24.0833 20.5 24.0381 20.3815 24.0381 20.2359V19.3892ZM22.5393 25.2884H32.2146C32.3414 25.2884 32.4552 25.3389 32.5553 25.4387C32.6549 25.539 32.7051 25.6619 32.7051 25.8074V26.6815C32.7051 26.809 32.6549 26.9234 32.5553 27.0232C32.4552 27.1234 32.3414 27.1733 32.2146 27.1733H20.931C20.804 27.1733 20.6904 27.1234 20.5904 27.0232C20.4905 26.9234 20.4407 26.809 20.4407 26.6815V13.5991C20.4407 13.4535 20.4905 13.3306 20.5904 13.2302C20.6904 13.1306 20.804 13.0802 20.931 13.0802H32.0783C32.2234 13.0802 32.3462 13.1306 32.4462 13.2302C32.5459 13.3306 32.5959 13.4535 32.5959 13.5991V14.4732C32.5959 14.6007 32.5459 14.7144 32.4462 14.8144C32.3462 14.9145 32.2234 14.9644 32.0783 14.9644H22.5393V25.2884ZM41.8896 25.2886V14.9644H48.4915C49.0715 14.9644 49.556 15.1558 49.9449 15.5382C50.3343 15.9206 50.5294 16.385 50.5294 16.9311C50.5294 17.4598 50.3524 17.919 49.9981 18.3106C49.6435 18.702 49.1574 18.8974 48.5396 18.8974H43.9065C43.7606 18.8974 43.6431 18.9434 43.552 19.0339C43.4611 19.1258 43.4158 19.2435 43.4158 19.3891V20.2089C43.4158 20.3544 43.4611 20.4728 43.552 20.5635C43.6431 20.6552 43.7606 20.6999 43.9065 20.6999H48.7849C49.4757 20.6999 50.007 20.9322 50.3795 21.3968C50.7514 21.8607 50.938 22.3938 50.938 22.9943C50.938 23.6322 50.7158 24.1737 50.2722 24.6196C49.8284 25.0659 49.2625 25.2886 48.574 25.2886H41.8896ZM39.9274 13.2304C39.8365 13.3305 39.7912 13.4534 39.7912 13.5991V26.6816C39.7912 26.8276 39.8365 26.9455 39.9274 27.0366C40.0186 27.1279 40.1372 27.1732 40.2825 27.1732H48.7764C49.3406 27.1732 49.8732 27.0638 50.3739 26.8454C50.8748 26.6271 51.3117 26.3314 51.6854 25.9576C52.0585 25.5848 52.3541 25.1482 52.5728 24.6468C52.791 24.1465 52.9007 23.6133 52.9007 23.0493C52.9007 22.3576 52.7306 21.7243 52.3908 21.151C52.0512 20.577 51.6056 20.0995 51.0545 19.7172C51.478 19.371 51.8234 18.9524 52.0913 18.4607C52.3581 17.9689 52.4915 17.4321 52.4915 16.849C52.4915 16.3397 52.3914 15.852 52.1913 15.3881C51.9912 14.9235 51.7177 14.5237 51.3717 14.186C51.0257 13.8495 50.6203 13.581 50.1563 13.3804C49.6921 13.1805 49.2049 13.0801 48.6951 13.0801H40.2825C40.1372 13.0801 40.0186 13.1306 39.9274 13.2304ZM60.6135 13.5991C60.6135 13.4535 60.6586 13.3306 60.7497 13.2302C60.8401 13.1306 60.9583 13.0802 61.1042 13.0802H69.2804C69.8801 13.0802 70.4387 13.194 70.9565 13.4213C71.4743 13.6496 71.9281 13.9589 72.3193 14.3503C72.7095 14.7417 73.0187 15.1965 73.2459 15.7154C73.4726 16.2344 73.5867 16.7947 73.5867 17.3957C73.5867 17.9056 73.5047 18.3883 73.3415 18.8431C73.1775 19.2984 72.9503 19.7081 72.6597 20.0718C72.3691 20.4366 72.0237 20.7504 71.624 21.0145C71.2244 21.2784 70.7969 21.4646 70.3431 21.5741L74.213 26.8731C74.2499 26.9274 74.2679 26.9914 74.2679 27.0638C74.2679 27.1551 74.213 27.2004 74.1046 27.2004H72.3871C72.2601 27.2004 72.1282 27.1595 71.9921 27.0775C71.8559 26.996 71.7422 26.891 71.6511 26.7637L67.9447 21.7106H64.7559C64.6105 21.7106 64.4925 21.6652 64.402 21.5741C64.3105 21.4835 64.2653 21.3651 64.2653 21.2189V20.3727C64.2653 20.227 64.3105 20.1086 64.402 20.0175C64.4925 19.9267 64.6105 19.8809 64.7559 19.8809H69.008C69.6982 19.8809 70.2928 19.6446 70.7931 19.1705C71.2923 18.6974 71.5427 18.1151 71.5427 17.4228C71.5427 16.7311 71.2923 16.1483 70.7931 15.6746C70.2928 15.2017 69.6982 14.9644 69.008 14.9644H62.7119V26.6815C62.7119 26.8277 62.6615 26.9455 62.5619 27.0366C62.462 27.128 62.3393 27.1732 62.194 27.1732H61.1042C60.9583 27.1732 60.8401 27.128 60.7497 27.0366C60.6586 26.9455 60.6135 26.8277 60.6135 26.6815V13.5991ZM95.2806 26.9274C95.2806 26.9093 95.2624 26.8453 95.2264 26.7365L88.7669 13.599C88.6946 13.4536 88.5901 13.3305 88.4538 13.2303C88.3175 13.1305 88.176 13.0803 88.0313 13.0803H86.7504C86.6047 13.0803 86.464 13.1305 86.3277 13.2303C86.1914 13.3305 86.0869 13.4536 86.0144 13.599L79.555 26.7365C79.5181 26.8453 79.5008 26.9093 79.5008 26.9274C79.5008 27.0911 79.5912 27.1733 79.7732 27.1733H81.136C81.2807 27.1733 81.3899 27.1007 81.463 26.9545L87.4047 14.7191L90.7294 21.902H85.9054C85.7053 21.902 85.569 21.9933 85.4968 22.1752L84.897 23.3767C84.8788 23.4135 84.8698 23.4588 84.8698 23.5131C84.8698 23.6412 84.933 23.7046 85.0602 23.7046H91.6019L93.1553 26.9545C93.2276 27.1007 93.3366 27.1733 93.4819 27.1733H95.0081C95.1897 27.1733 95.2806 27.0911 95.2806 26.9274Z" fill="#FCFCFC"/>
</svg>
